<?xml version="1.0" encoding="utf-8"?>
<!-- Generator: Adobe Illustrator 27.5.0, SVG Export Plug-In . SVG Version: 6.00 Build 0)  -->
<svg version="1.1" id="Capa_1" xmlns="http://www.w3.org/2000/svg" xmlns:xlink="http://www.w3.org/1999/xlink" x="0px" y="0px"
	 viewBox="0 0 2122 2122" style="enable-background:new 0 0 2122 2122;" xml:space="preserve">
<g>
	<path style="fill:#676921;" d="M1694.555,1132.629c-12.692-69.272-34.358-136.575-50.499-205.126
		c-11.191-47.556-19.746-95.717-25.579-144.189c-6.694-55.581-9.832-111.606-9.364-167.576
		c0.92-110.66,15.142-225.764-26.022-328.482c-59.108-147.629-239.21-234.407-391.512-188.658
		c-175.376,52.721-269.539,236.043-391.81,372.37C669.943,615.684,512.754,721.346,417.261,895.557
		c-111.303,203.045-154.577,457.782-71.557,678.381c27.416,72.833,67.084,140.97,116.745,200.463
		c65.306,78.334,147.912,141.661,242.489,180.935c101.135,41.973,210.046,59.639,317.344,54.387
		c207.936-10.251,409.841-106.607,537.446-279.011C1684.752,1561.773,1732.386,1339.371,1694.555,1132.629z"/>
	<path style="fill:#FEF1A5;" d="M1623.559,1123.966c-11.386-62.168-30.831-122.524-45.301-184.019
		c-0.218-0.927-0.397-1.861-0.614-2.788c-21.142-90.648-31.491-183.795-30.719-276.865c0.804-99.274,13.554-202.519-23.362-294.68
		c-27.415-68.467-83.859-122.358-150.855-152.745c-62.578-28.385-134.383-36.302-200.35-16.468
		c-157.325,47.274-241.822,211.737-351.483,334.012C704.413,660.239,563.419,755.011,477.728,911.308
		c-88.053,160.628-128.604,357.344-85.885,537.276c5.695,24.113,12.916,47.917,21.72,71.274
		c39.277,104.352,106.661,198.005,193.669,266.424c39.142,30.78,82.251,56.462,128.567,75.7
		c90.743,37.666,188.433,53.525,284.706,48.774c186.518-9.164,367.619-95.605,482.09-250.265
		C1614.779,1508.945,1657.503,1309.427,1623.559,1123.966z"/>
	<path style="fill:#FFE564;" d="M1623.559,1123.966c-11.386-62.168-30.831-122.524-45.301-184.019
		c-0.218-0.927-0.397-1.861-0.614-2.788c-21.142-90.648-31.491-183.795-30.719-276.865c0.804-99.274,13.554-202.519-23.362-294.68
		c-27.415-68.467-83.859-122.358-150.855-152.745c39.22,83.747,43.167,166.66,17.5,260.379
		c-26.251,95.825-70.967,187.99-76.497,287.206c-2.312,41.487,2.36,82.676,9.599,123.739c-9.642-18.364-20.954-35.761-34.349-51.656
		c-39.605-47.055-94.578-75.055-155.878-72.555c-2.026,0.083-4.059,0.195-6.085,0.336
		c-154.991,11.333-301.208,163.24-360.063,298.372c-43.917,100.882-67.055,224.628-37.247,333.568
		c6.387,23.416,15.221,46.105,26.831,67.771c4.38,8.179,9.117,16.005,14.126,23.541c-109.346-36.382-218.743-92.441-326.613-58.927
		c-18.499,5.749-35.859,13.915-52.19,23.941c5.695,24.113,12.916,47.917,21.72,71.274
		c39.277,104.352,106.661,198.005,193.669,266.424c39.142,30.78,82.251,56.462,128.567,75.7
		c90.743,37.666,188.433,53.525,284.706,48.774c186.518-9.164,367.619-95.605,482.09-250.265
		C1614.779,1508.945,1657.503,1309.427,1623.559,1123.966z"/>
	<path style="fill:#822F11;" d="M1359.072,980.249c-8.582-33.073-19.91-65.872-35.76-96.056
		c-9.642-18.364-20.954-35.761-34.349-51.656c-39.605-47.055-94.578-75.055-155.878-72.555c-2.026,0.083-4.059,0.195-6.085,0.336
		c-154.991,11.333-301.208,163.24-360.063,298.372c-43.917,100.882-67.055,224.628-37.247,333.568
		c6.387,23.416,15.221,46.105,26.831,67.771c4.38,8.179,9.117,16.005,14.126,23.541c67.32,101.282,189.312,144.172,309.191,119.508
		c37.023-7.61,70.801-20.39,101.217-37.471c92.633-52.024,153.964-144.185,180.546-253.349
		C1388.041,1203.625,1387.155,1088.463,1359.072,980.249z"/>
	<path style="fill:#363418;" d="M1644.056,927.503c-11.191-47.556-19.746-95.717-25.579-144.189
		c-13.605,51.275-27.223,102.563-40.833,153.845c0.217,0.927,0.396,1.862,0.614,2.788c14.47,61.495,33.914,121.851,45.301,184.019
		c33.944,185.462-8.78,384.979-120.964,536.526c-114.47,154.66-295.571,241.1-482.09,250.265
		c-96.273,4.751-193.963-11.108-284.706-48.774c-46.317-19.238-89.425-44.919-128.567-75.7c-11.797-0.037-23.59-0.167-35.369-0.49
		c-37.968-1.057-74.329-4.473-109.413-11.391c65.306,78.334,147.912,141.661,242.489,180.935
		c101.135,41.973,210.046,59.639,317.344,54.387c207.936-10.251,409.841-106.607,537.446-279.011
		c125.023-168.94,172.657-391.342,134.825-598.084C1681.863,1063.357,1660.197,996.054,1644.056,927.503z"/>
	<path style="fill:#68210D;" d="M1133.084,759.981c67.162,124.94,83.635,277.184,41.525,412.925
		c-30.831,99.41-95.216,192.492-189.242,237.101c-94.548,44.828-169.573,16.775-255.678-17.749
		c6.387,23.416,15.221,46.105,26.831,67.771c4.38,8.179,9.117,16.005,14.126,23.541c67.32,101.282,189.312,144.172,309.191,119.508
		c37.023-7.61,70.801-20.39,101.217-37.471c92.633-52.024,153.964-144.185,180.546-253.349
		c26.441-108.633,25.554-223.795-2.529-332.009c-8.582-33.073-19.91-65.872-35.76-96.056c-9.642-18.364-20.954-35.761-34.349-51.656
		C1249.357,785.482,1194.385,757.482,1133.084,759.981z"/>
	<path style="fill:#E9966A;" d="M960.675,1155.747c33.394-35.464,70.465-67.961,97.978-108.166
		c15.99-23.367,28.809-50.299,28.433-78.616c-0.38-28.317-16.892-57.773-43.907-66.251c-19.513-6.119-40.779-0.736-59.649,7.152
		c-84.307,35.24-140.984,117.607-170.562,204.063c-13.452,39.308-38.509,158.884,31.24,164.034
		C891.594,1281.462,933.206,1184.916,960.675,1155.747z"/>
	<path style="fill:#FFE564;" d="M505.991,1057.233c20.936-6.709,23.639-35.586,31.513-53.793
		c11.279-26.095,24.589-51.298,39.371-75.571c14.728-24.19,30.991-48.151,48.814-70.158c16.662-20.57,37.008-38.67,51.323-60.994
		c5.184-8.093-4.843-16.731-12.59-12.59c-24.463,13.077-43.629,35.756-61.583,56.453c-18.68,21.54-35.776,43.81-51.084,67.902
		c-15.97,25.14-29.836,51.591-41.773,78.87c-7.936,18.144-27.206,47.284-14.188,65.734
		C498.045,1056.273,501.977,1058.519,505.991,1057.233z"/>
	<path style="fill:#FFE564;" d="M486.293,1256.585c7.849-16.838,4.273-35.562,5.852-53.788c1.9-21.866,9.393-42.641,10.694-64.477
		c0.629-10.524-13.31-12.473-18.44-4.994c-12.205,17.798-15.684,40.136-18.222,61.242c-2.368,19.737-6.295,44.979,5.725,62.017
		C475.151,1261.193,483.419,1262.758,486.293,1256.585z"/>
	<path style="fill:#FFE564;" d="M769.056,684.994c113.408-23.688,178.553-134.85,234.855-225.315
		c33.53-53.88,69.447-109.803,122.314-146.777c23.362-16.341,49.296-29.062,77.018-35.936c32.779-8.127,59.79-2.865,92.039,2.699
		c16.014,2.757,27.736-18.792,11.703-27.766c-46.885-26.251-110.738-12.331-156.507,9.169
		c-56.102,26.353-98.582,71.956-133.725,121.958C943.209,487.67,893.377,619.406,764.028,666.748
		C752.646,670.914,757.022,687.508,769.056,684.994z"/>
</g>
</svg>
